<svg xmlns="http://www.w3.org/2000/svg" width="493" height="230" viewBox="0 0 493 230" role="img">
<rect width="493" height="230" rx="10" fill="#121821"/>
<line x1="0" y1="28" x2="493" y2="28" stroke="#e2e8f0" stroke-opacity="0.25"/>
<circle cx="18" cy="14" r="5" fill="#ff7edb" fill-opacity="0.85"/>
<circle cx="36" cy="14" r="5" fill="#ffcb6b" fill-opacity="0.85"/>
<circle cx="54" cy="14" r="5" fill="#c3e88d" fill-opacity="0.85"/>
<g font-family="ui-monospace, 'DejaVu Sans Mono', 'Menlo', 'Consolas', monospace" font-size="15" xml:space="preserve">
<text x="16.00" y="53.70" fill="#8b9bb4" font-style="italic">//</text>
<text x="43.09" y="53.70" fill="#8b9bb4" font-style="italic">A</text>
<text x="61.15" y="53.70" fill="#8b9bb4" font-style="italic">worked</text>
<text x="124.36" y="53.70" fill="#8b9bb4" font-style="italic">line</text>
<text x="169.51" y="53.70" fill="#8b9bb4" font-style="italic">of</text>
<text x="196.60" y="53.70" fill="#8b9bb4" font-style="italic">Rite,</text>
<text x="250.78" y="53.70" fill="#8b9bb4" font-style="italic">for</text>
<text x="286.90" y="53.70" fill="#8b9bb4" font-style="italic">the</text>
<text x="323.02" y="53.70" fill="#8b9bb4" font-style="italic">renderer</text>
<text x="404.29" y="53.70" fill="#8b9bb4" font-style="italic">to</text>
<text x="431.38" y="53.70" fill="#8b9bb4" font-style="italic">draw.</text>
<text x="16.00" y="75.45" fill="#ff7edb">◆!</text>
<text x="43.09" y="75.45" fill="#e2e8f0">main</text>
<text x="79.21" y="75.45" fill="#8b9bb4">()</text>
<text x="106.30" y="75.45" fill="#ff7edb">⟦</text>
<text x="34.06" y="97.20" fill="#e2e8f0">raw</text>
<text x="70.18" y="97.20" fill="#ff7edb">←</text>
<text x="88.24" y="97.20" fill="#ff7edb">!</text>
<text x="106.30" y="97.20" fill="#7ee0ff">@fs</text>
<text x="133.39" y="97.20" fill="#8b9bb4">.</text>
<text x="142.42" y="97.20" fill="#a9e9ff">read</text>
<text x="178.54" y="97.20" fill="#8b9bb4">(</text>
<text x="187.57" y="97.20" fill="#c3e88d">&quot;orders.json&quot;</text>
<text x="304.96" y="97.20" fill="#8b9bb4">)</text>
<text x="313.99" y="97.20" fill="#ff7edb">?</text>
<text x="34.06" y="118.95" fill="#e2e8f0">orders</text>
<text x="97.27" y="118.95" fill="#ff7edb">←</text>
<text x="115.33" y="118.95" fill="#7ee0ff">@json</text>
<text x="160.48" y="118.95" fill="#8b9bb4">.</text>
<text x="169.51" y="118.95" fill="#a9e9ff">decode</text>
<text x="223.69" y="118.95" fill="#8b9bb4">(</text>
<text x="232.72" y="118.95" fill="#e2e8f0">raw</text>
<text x="259.81" y="118.95" fill="#8b9bb4">)</text>
<text x="268.84" y="118.95" fill="#ff7edb">?</text>
<text x="34.06" y="140.70" fill="#e2e8f0">total</text>
<text x="88.24" y="140.70" fill="#ff7edb">←</text>
<text x="106.30" y="140.70" fill="#e2e8f0">orders</text>
<text x="169.51" y="140.70" fill="#ff7edb">→</text>
<text x="187.57" y="140.70" fill="#e2e8f0">map</text>
<text x="214.66" y="140.70" fill="#8b9bb4">({</text>
<text x="241.75" y="140.70" fill="#8b9bb4">|</text>
<text x="250.78" y="140.70" fill="#e2e8f0">o</text>
<text x="259.81" y="140.70" fill="#8b9bb4">|</text>
<text x="277.87" y="140.70" fill="#e2e8f0">o</text>
<text x="286.90" y="140.70" fill="#8b9bb4">.</text>
<text x="295.93" y="140.70" fill="#e2e8f0">qty</text>
<text x="332.05" y="140.70" fill="#89ddff">*</text>
<text x="350.11" y="140.70" fill="#f78c6c">2</text>
<text x="368.17" y="140.70" fill="#8b9bb4">})</text>
<text x="395.26" y="140.70" fill="#ff7edb">→</text>
<text x="413.32" y="140.70" fill="#e2e8f0">sum</text>
<text x="34.06" y="162.45" fill="#ff7edb">!</text>
<text x="52.12" y="162.45" fill="#7ee0ff">@console</text>
<text x="124.36" y="162.45" fill="#8b9bb4">.</text>
<text x="133.39" y="162.45" fill="#a9e9ff">println</text>
<text x="196.60" y="162.45" fill="#8b9bb4">(</text>
<text x="205.63" y="162.45" fill="#c3e88d">&quot;total</text>
<text x="268.84" y="162.45" fill="#c3e88d">&quot;</text>
<text x="286.90" y="162.45" fill="#89ddff">+</text>
<text x="304.96" y="162.45" fill="#e2e8f0">str</text>
<text x="332.05" y="162.45" fill="#8b9bb4">(</text>
<text x="341.08" y="162.45" fill="#e2e8f0">total</text>
<text x="386.23" y="162.45" fill="#8b9bb4">))</text>
<text x="34.06" y="184.20" fill="#ff7edb">^</text>
<text x="52.12" y="184.20" fill="#ff7edb">⟨</text>
<text x="61.15" y="184.20" fill="#e2e8f0">status</text>
<text x="115.33" y="184.20" fill="#8b9bb4">:</text>
<text x="133.39" y="184.20" fill="#ff7edb">#ok</text>
<text x="160.48" y="184.20" fill="#8b9bb4">,</text>
<text x="178.54" y="184.20" fill="#e2e8f0">total</text>
<text x="223.69" y="184.20" fill="#8b9bb4">:</text>
<text x="241.75" y="184.20" fill="#e2e8f0">total</text>
<text x="286.90" y="184.20" fill="#8b9bb4">,</text>
<text x="304.96" y="184.20" fill="#e2e8f0">rate</text>
<text x="341.08" y="184.20" fill="#8b9bb4">:</text>
<text x="359.14" y="184.20" fill="#f78c6c">0.15</text>
<text x="395.26" y="184.20" fill="#ff7edb">⟩</text>
<text x="16.00" y="205.95" fill="#ff7edb">⟧</text>
</g>
</svg>
